<svg xmlns="http://www.w3.org/2000/svg" xmlns:xlink="http://www.w3.org/1999/xlink" overflow="hidden" style="position:relative" viewBox="73 64.5 683.1 347.9">
  <defs>
    <path id="a" fill="none" d="M10 0h48"/>
    <path id="b" fill="none" d="M0 0h49"/>
  </defs>
  <path fill="#FFF" stroke="#7F7F7F" stroke-dasharray="1.167,1.167" stroke-width="1.2" d="M233 317h341v94H233v-94zm0-142h341v132H233V175zm0-108h341v102H233V67z"/>
  <path fill="#d8d8d8" stroke="#000" d="M82 65h129v344H82z"/>
  <path fill="none" d="M73 80h137v324H73z"/>
  <text x="73.8" y="128.5" style="white-space:pre"><tspan x="114.1" y="150.7" fill="#333" font-family="Segoe UI,Source Sans Pro,Arial,Helvetica Neue,Helvetica,sans-serif" font-size="20.8" font-weight="bold" text-rendering="optimizeSpeed" textLength="56.8" word-spacing="0">Client</tspan><tspan x="95" y="178.5" fill="#333" font-family="Segoe UI,Source Sans Pro,Arial,Helvetica Neue,Helvetica,sans-serif" font-size="20.8" font-weight="bold" text-rendering="optimizeSpeed" textLength="95" word-spacing="0">(Browser)</tspan></text>
  <path fill="#d8d8d8" stroke="#000" d="M594 67h133v344H594z"/>
  <path fill="none" d="M601 80h138v323H601z"/>
  <text x="587.7" y="122.4" style="white-space:pre"><tspan x="634.2" y="144.7" fill="#333" font-family="Segoe UI,Source Sans Pro,Arial,Helvetica Neue,Helvetica,sans-serif" font-size="20.8" font-weight="bold" text-rendering="optimizeSpeed" textLength="44.6" word-spacing="0">Web</tspan><tspan x="600" y="172.4" fill="#333" font-family="Segoe UI,Source Sans Pro,Arial,Helvetica Neue,Helvetica,sans-serif" font-size="20.8" font-weight="bold" text-rendering="optimizeSpeed" textLength="112.9" word-spacing="0">Application</tspan><tspan x="626" y="200.2" fill="#333" font-family="Segoe UI,Source Sans Pro,Arial,Helvetica Neue,Helvetica,sans-serif" font-size="20.8" font-weight="bold" text-rendering="optimizeSpeed" textLength="61.1" word-spacing="0">Server</tspan></text>
  <g fill="red" stroke="red">
    <path fill="none" stroke-width="2" d="M258 130h288"/>
    <path stroke="none" d="m546 124 12 6-12 6z"/>
  </g>
  <path fill="none" d="M272 105h193v20H272v-20z"/>
  <path fill="none" d="M272 105h193v20H272z"/>
  <text style="white-space:pre" transform="translate(272 105)"><tspan x="0" y="15.3" fill="#333" font-family="Segoe UI,Source Sans Pro,Arial,Helvetica Neue,Helvetica,sans-serif" font-size="13.9" font-weight="bold" text-rendering="optimizeSpeed" textLength="178.7">Load page: GET /pagename</tspan></text>
  <g fill="red" stroke="red">
    <path fill="none" stroke-width="2" d="M270 164h288"/>
    <path stroke="none" d="m270 170-12-6 12-6z"/>
  </g>
  <path fill="none" d="M277 138h263v20H277v-20z"/>
  <path fill="none" d="M277 138h263v20H277z"/>
  <text style="white-space:pre" transform="translate(277 138)"><tspan x="0" y="15.3" fill="#333" font-family="Segoe UI,Source Sans Pro,Arial,Helvetica Neue,Helvetica,sans-serif" font-size="13.9" font-weight="bold" text-rendering="optimizeSpeed" textLength="242.6">Response: dynamically created HTML</tspan></text>
  <path fill="none" d="M369 174h82v23h-82v-23z"/>
  <path fill="none" d="M369 174h82v23h-82z"/>
  <text style="white-space:pre" transform="translate(369 174)"><tspan x="0" y="16.7" fill="#00B0F0" font-family="Segoe UI,Source Sans Pro,Arial,Helvetica Neue,Helvetica,sans-serif" font-size="15.3" font-weight="bold" text-rendering="optimizeSpeed" textLength="73.6">AJAX calls</tspan></text>
  <path fill="none" d="M251 198h318v20H251v-20z"/>
  <path fill="none" d="M251 198h318v20H251z"/>
  <text style="white-space:pre" transform="translate(251 198)"><tspan x="0" y="15.3" fill="#333" font-family="Segoe UI,Source Sans Pro,Arial,Helvetica Neue,Helvetica,sans-serif" font-size="13.9" font-weight="bold" text-rendering="optimizeSpeed" textLength="294">GET /pagename?param1=val1&amp;param2=val2</tspan></text>
  <path fill="none" d="M245 234h327v20H245v-20z"/>
  <path fill="none" d="M245 234h327v20H245z"/>
  <text style="white-space:pre" transform="translate(245 234)"><tspan x="0" y="15.3" fill="#333" font-family="Segoe UI,Source Sans Pro,Arial,Helvetica Neue,Helvetica,sans-serif" font-size="13.9" font-weight="bold" text-rendering="optimizeSpeed" textLength="302.9">JSON response: { &quot;key&quot;: &quot;val&quot;, &quot;data&quot; : [1,2,4] }</tspan></text>
  <g fill="#0070C0" stroke="#0070C0">
    <path fill="none" d="M268 259h290"/>
    <path stroke="none" d="m268 264-10-5 10-5z"/>
  </g>
  <g fill="#0070C0" stroke="#0070C0">
    <path fill="none" d="M258 226h290"/>
    <path stroke="none" d="m548 221 10 5-10 5z"/>
  </g>
  <g fill="#0070C0" stroke="#0070C0">
    <use xlink:href="#a" transform="matrix(1 0 0 1.01 442 282)"/>
    <path stroke="none" d="m452 287-10-5 10-5z"/>
  </g>
  <g fill="#0070C0" stroke="#0070C0">
    <use xlink:href="#a" transform="matrix(1 0 0 1.01 467 291)"/>
    <path stroke="none" d="m477 296-10-5 10-5z"/>
  </g>
  <g fill="#0070C0" stroke="#0070C0">
    <use xlink:href="#a" transform="matrix(1 0 0 1.01 492 299)"/>
    <path stroke="none" d="m502 304-10-5 10-5z"/>
  </g>
  <g fill="#0070C0" stroke="#0070C0">
    <use xlink:href="#b" transform="matrix(1.00154 0 0 1.0101 263 274)"/>
    <path stroke="none" d="m312 269 10 5-10 5z"/>
  </g>
  <g fill="#0070C0" stroke="#0070C0">
    <use xlink:href="#b" transform="matrix(1.00154 0 0 1.0101 288 283)"/>
    <path stroke="none" d="m337 278 10 5-10 5z"/>
  </g>
  <g fill="#0070C0" stroke="#0070C0">
    <path fill="none" d="M0 0h48" transform="matrix(1.00154 0 0 1.0101 313 291)"/>
    <path stroke="none" d="m362 286 10 5-10 5z"/>
  </g>
  <g fill="red" stroke="red">
    <path fill="none" stroke-width="2" d="M253 368h288"/>
    <path stroke="none" d="m541 362 12 6-12 6z"/>
  </g>
  <path fill="none" d="M267 342h283v20H267v-20z"/>
  <path fill="none" d="M267 342h283v20H267z"/>
  <text style="white-space:pre" transform="translate(267 342)"><tspan x="0" y="15.3" fill="#333" font-family="Segoe UI,Source Sans Pro,Arial,Helvetica Neue,Helvetica,sans-serif" font-size="13.9" font-weight="bold" text-rendering="optimizeSpeed" textLength="262.1">Send data: POST /pagename?param=val</tspan></text>
  <g fill="red" stroke="red">
    <path fill="none" stroke-width="2" d="M267 401h288"/>
    <path stroke="none" d="m267 407-12-6 12-6z"/>
  </g>
  <path fill="none" d="M274 376h262v20H274v-20z"/>
  <path fill="none" d="M274 376h262v20H274z"/>
  <text style="white-space:pre" transform="translate(274 376)"><tspan x="0" y="15.3" fill="#333" font-family="Segoe UI,Source Sans Pro,Arial,Helvetica Neue,Helvetica,sans-serif" font-size="13.9" font-weight="bold" text-rendering="optimizeSpeed" textLength="242.6">Response: dynamically created HTML</tspan></text>
  <path fill="none" d="M346 69h108v23H346V69z"/>
  <path fill="none" d="M346 69h108v23H346z"/>
  <text style="white-space:pre" transform="translate(346 69)"><tspan x="0" y="16.7" fill="#333" font-family="Segoe UI,Source Sans Pro,Arial,Helvetica Neue,Helvetica,sans-serif" font-size="15.3" font-weight="bold" text-rendering="optimizeSpeed" textLength="96.7">Request Page</tspan></text>
  <path fill="none" d="M354 315h104v23H354v-23z"/>
  <path fill="none" d="M354 315h104v23H354z"/>
  <text style="white-space:pre" transform="translate(354 315)"><tspan x="0" y="16.7" fill="#333" font-family="Segoe UI,Source Sans Pro,Arial,Helvetica Neue,Helvetica,sans-serif" font-size="15.3" font-weight="bold" text-rendering="optimizeSpeed" textLength="93.2">Submit Form</tspan></text>
  <path fill="none" d="M611 290h145v122H611V290z"/>
  <path fill="none" d="M611 290h145v122H611z"/>
  <text x="595.4" y="282.7" style="white-space:pre"><tspan x="595.4" y="299.4" font-family="Segoe UI,Source Sans Pro,Arial,Helvetica Neue,Helvetica,sans-serif" font-size="15.3" font-weight="bold" text-rendering="optimizeSpeed" textLength="110.6" word-spacing="0">Request object:</tspan><tspan x="595.4" y="316.8" font-family="Segoe UI,Source Sans Pro,Arial,Helvetica Neue,Helvetica,sans-serif" font-size="12.5" font-weight="bold" text-rendering="optimizeSpeed" textLength="104.4" word-spacing="0">Parsed client data</tspan><tspan x="595.4" y="337.1" font-family="Segoe UI,Source Sans Pro,Arial,Helvetica Neue,Helvetica,sans-serif" font-size="15.3" font-weight="bold" text-rendering="optimizeSpeed" textLength="120.7" word-spacing="0">Response object:</tspan><tspan x="595.4" y="354.4" font-family="Segoe UI,Source Sans Pro,Arial,Helvetica Neue,Helvetica,sans-serif" font-size="12.5" font-weight="bold" text-rendering="optimizeSpeed" textLength="129" word-spacing="0">Client response buffer</tspan><tspan x="595.4" y="371.3" font-family="Segoe UI,Source Sans Pro,Arial,Helvetica Neue,Helvetica,sans-serif" font-size="12.5" font-weight="bold" text-rendering="optimizeSpeed" textLength="91.5" word-spacing="0">and transaction</tspan><tspan x="595.4" y="388.1" font-family="Segoe UI,Source Sans Pro,Arial,Helvetica Neue,Helvetica,sans-serif" font-size="12.5" font-weight="bold" text-rendering="optimizeSpeed" textLength="77.6" word-spacing="0">management</tspan></text>
  <path fill="none" d="M99 298h84v75H99v-75z"/>
  <path fill="none" d="M99 298h84v76H99z"/>
  <text x="106.8" y="261.2" style="white-space:pre"><tspan x="106.8" y="274.4" font-family="Segoe UI,Source Sans Pro,Arial,Helvetica Neue,Helvetica,sans-serif" font-size="12.5" font-weight="bold" text-rendering="optimizeSpeed" textLength="76" word-spacing="0">Smartphone,</tspan><tspan x="106.8" y="291" font-family="Segoe UI,Source Sans Pro,Arial,Helvetica Neue,Helvetica,sans-serif" font-size="12.5" font-weight="bold" text-rendering="optimizeSpeed" textLength="39.3" word-spacing="0">Tablet,</tspan><tspan x="106.8" y="307.7" font-family="Segoe UI,Source Sans Pro,Arial,Helvetica Neue,Helvetica,sans-serif" font-size="12.5" font-weight="bold" text-rendering="optimizeSpeed" textLength="28.1" word-spacing="0">Mac,</tspan><tspan x="106.8" y="324.4" font-family="Segoe UI,Source Sans Pro,Arial,Helvetica Neue,Helvetica,sans-serif" font-size="12.5" font-weight="bold" text-rendering="optimizeSpeed" textLength="54.5" word-spacing="0">Windows</tspan></text>
</svg>
