<svg width="28" height="28" viewBox="0 0 28 28" fill="none" xmlns="http://www.w3.org/2000/svg">
  <path fill-rule="evenodd" clip-rule="evenodd" d="M24.2445 3.75548C24.326 3.83676 24.3906 3.93331 24.4348 4.03962C24.4789 4.14592 24.5016 4.25988 24.5016 4.37498C24.5016 4.49007 24.4789 4.60403 24.4348 4.71034C24.3906 4.81664 24.326 4.9132 24.2445 4.99448L4.99451 24.2445C4.83021 24.4088 4.60736 24.5011 4.37501 24.5011C4.14265 24.5011 3.91981 24.4088 3.75551 24.2445C3.5912 24.0802 3.4989 23.8573 3.4989 23.625C3.4989 23.3926 3.5912 23.1698 3.75551 23.0055L23.0055 3.75548C23.0868 3.67399 23.1833 3.60934 23.2896 3.56523C23.396 3.52112 23.5099 3.49841 23.625 3.49841C23.7401 3.49841 23.8541 3.52112 23.9604 3.56523C24.0667 3.60934 24.1632 3.67399 24.2445 3.75548Z" fill="#AE93EA"/>
  <path fill-rule="evenodd" clip-rule="evenodd" d="M3.75548 3.75548C3.67399 3.83676 3.60934 3.93331 3.56523 4.03962C3.52112 4.14592 3.49841 4.25988 3.49841 4.37498C3.49841 4.49007 3.52112 4.60403 3.56523 4.71034C3.60934 4.81664 3.67399 4.9132 3.75548 4.99448L23.0055 24.2445C23.1698 24.4088 23.3926 24.5011 23.625 24.5011C23.8573 24.5011 24.0802 24.4088 24.2445 24.2445C24.4088 24.0802 24.5011 23.8573 24.5011 23.625C24.5011 23.3926 24.4088 23.1698 24.2445 23.0055L4.99448 3.75548C4.9132 3.67399 4.81664 3.60934 4.71034 3.56523C4.60403 3.52112 4.49007 3.49841 4.37498 3.49841C4.25988 3.49841 4.14592 3.52112 4.03962 3.56523C3.93331 3.60934 3.83676 3.67399 3.75548 3.75548Z" fill="#AE93EA"/>
</svg>