<svg width="34" height="34" viewBox="0 0 34 34" fill="none" xmlns="http://www.w3.org/2000/svg">
<path d="M4.25 22.3125C4.25 22.0307 4.36194 21.7605 4.5612 21.5612C4.76046 21.3619 5.03071 21.25 5.3125 21.25H11.6875C11.9693 21.25 12.2395 21.3619 12.4388 21.5612C12.6381 21.7605 12.75 22.0307 12.75 22.3125C12.75 22.5943 12.6381 22.8645 12.4388 23.0638C12.2395 23.2631 11.9693 23.375 11.6875 23.375H5.3125C5.03071 23.375 4.76046 23.2631 4.5612 23.0638C4.36194 22.8645 4.25 22.5943 4.25 22.3125ZM4.25 15.9375C4.25 15.6557 4.36194 15.3855 4.5612 15.1862C4.76046 14.9869 5.03071 14.875 5.3125 14.875H20.1875C20.4693 14.875 20.7395 14.9869 20.9388 15.1862C21.1381 15.3855 21.25 15.6557 21.25 15.9375C21.25 16.2193 21.1381 16.4895 20.9388 16.6888C20.7395 16.8881 20.4693 17 20.1875 17H5.3125C5.03071 17 4.76046 16.8881 4.5612 16.6888C4.36194 16.4895 4.25 16.2193 4.25 15.9375ZM4.25 9.5625C4.25 9.28071 4.36194 9.01046 4.5612 8.8112C4.76046 8.61194 5.03071 8.5 5.3125 8.5H28.6875C28.9693 8.5 29.2395 8.61194 29.4388 8.8112C29.6381 9.01046 29.75 9.28071 29.75 9.5625C29.75 9.84429 29.6381 10.1145 29.4388 10.3138C29.2395 10.5131 28.9693 10.625 28.6875 10.625H5.3125C5.03071 10.625 4.76046 10.5131 4.5612 10.3138C4.36194 10.1145 4.25 9.84429 4.25 9.5625Z" fill="#AE93EA"/>
</svg>
