<svg xmlns="http://www.w3.org/2000/svg" xmlns:xlink="http://www.w3.org/1999/xlink" xml:space="preserve" overflow="hidden" viewBox="0 0 2437 1006"><defs>

<style type="text/css"><![CDATA[
.svgSofGlow { 
filter: url(#sofGlow);
 }
]]></style>

<filter id="sofGlow" height="300%" width="300%" x="-75%" y="-75%">
		<!-- Thicken out the original shape -->
		<feMorphology operator="dilate" radius="1" in="SourceAlpha" result="thicken" />

		<!-- Use a gaussian blur to create the soft blurriness of the glow -->
		<feGaussianBlur in="thicken" stdDeviation="5" result="blurred" />

		<!-- Change the colour -->
		<feFlood flood-color="rgb(0,0,0)" result="glowColor" />

		<!-- Color in the glows -->
		<feComposite in="glowColor" in2="blurred" operator="in" result="softGlow_colored" />

		<!--	Layer the effects together -->
		<feMerge>
			<feMergeNode in="softGlow_colored"/>
			<feMergeNode in="SourceGraphic"/>
		</feMerge>

	</filter>
<path id="reuse-0" d="M588 547h847v846H588z"/><path id="reuse-1" d="M2391 665h476v475h-476z"/></defs><defs><clipPath id="a"><path d="M589 548h2437v1006H589z"/></clipPath><clipPath id="b"><use xlink:href="#reuse-0"/></clipPath><clipPath id="c"><use xlink:href="#reuse-0"/></clipPath><clipPath id="d"><use xlink:href="#reuse-0"/></clipPath><clipPath id="e"><use xlink:href="#reuse-1"/></clipPath><clipPath id="f"><use xlink:href="#reuse-1"/></clipPath><clipPath id="g"><use xlink:href="#reuse-1"/></clipPath></defs><g clip-path="url(#a)" transform="translate(-589 -548)"><g clip-path="url(#b)"><g clip-path="url(#c)"><g clip-path="url(#d)"><path d="M671 649c-27 0-48 23-48 49v577c0 9 7 17 17 17h743c10 0 17-8 17-17V698c0-26-21-49-48-49H671Zm0 34h681c8 0 14 7 14 15v154H657V698c0-8 6-15 14-15Zm239 34v101h406V717H910Zm-186 17a34 34 0 1 0 0 68 34 34 0 0 0 0-68Zm102 0a34 34 0 1 0 0 68 34 34 0 0 0 0-68Zm118 17h338v34H944v-34ZM657 886h709v372H657V886Z"/></g></g></g><text id="svgResults" font-family="Calibri,Calibri_MSFontService,sans-serif" font-size="147" font-weight="700" transform="translate(784 1083)">Results</text><path fill="none" stroke="#000" stroke-miterlimit="8" stroke-width="27.5" d="M2200 751c0-57 47-104 104-104h604c57 0 104 47 104 104v418c0 57-47 104-104 104h-604c-57 0-104-47-104-104Z"/><g clip-path="url(#e)"><g clip-path="url(#f)"><g clip-path="url(#g)"><path d="M2650 1012h-42c-2 0-5-3-5-6v-23l-13-5-16 16-4 2-4-2-29-29c-2-2-2-5 0-7l17-17-6-13h-23c-3 0-5-2-5-5v-41c0-3 2-5 5-5h23l6-13-17-17c-2-2-2-5 0-7l29-29c2-2 6-2 8 0l16 16 13-5v-23c0-3 3-6 5-6h42c2 0 5 3 5 6v23l13 5 16-16c2-2 6-2 8 0l29 29a5 5 0 0 1 0 7l-17 17 6 13h23c3 0 5 2 5 5v41c0 3-2 5-5 5h-23l-6 13 17 17a5 5 0 0 1 0 7l-29 29-4 2-4-2-16-16-13 5v23c0 3-3 6-5 6Zm-36-11h30v-21c0-3 1-5 4-5l19-8c2-1 4-1 6 1l15 15 22-22-16-15c-1-1-2-4-1-6l8-19c1-2 3-3 5-3h22v-31h-22c-2 0-4-1-5-3l-8-19c-1-2 0-5 1-6l16-15-22-22-15 15c-2 2-4 2-6 2l-20-9c-2 0-3-2-3-5v-21h-30v21c0 3-1 5-3 5l-20 8c-2 1-4 1-6-1l-15-15-22 22 16 15c1 1 2 4 1 6l-8 19c-1 2-3 3-5 3h-22v31h22c2 0 4 1 5 3l8 20c1 2 0 4-1 5l-16 16 22 21 15-15c2-2 4-2 6-1l20 8c2 1 3 2 3 5v21Zm15-49a50 50 0 1 1 0-100 50 50 0 0 1 0 100Zm0-89a39 39 0 1 0 0 79 39 39 0 0 0 0-79Zm0 268c-67 0-130-29-173-80v59h-11v-79h80v10h-63a218 218 0 0 0 385-139l10 1c0 125-102 228-228 228Zm-218-228h-10a228 228 0 0 1 401-149v-59h11v79h-80v-10h63a218 218 0 0 0-385 139Z"/></g></g></g><text id="svgExecute" font-family="Calibri,Calibri_MSFontService,sans-serif" font-size="147" font-weight="700" transform="translate(2390 1233)">Execute</text><text font-family="Calibri,Calibri_MSFontService,sans-serif" font-size="147" font-weight="700" transform="translate(761 1426)">Browser</text><text font-family="Calibri,Calibri_MSFontService,sans-serif" font-size="147" font-weight="700" transform="translate(2408 1426)">Server</text><path d="M1435 790h669v21h-669Zm658-20 62 31-62 30ZM2155 1130h-669v21h669Zm-659-20-61 31 61 30Z"/><text id="svgSave" font-family="Calibri,Calibri_MSFontService,sans-serif" font-size="147" font-weight="700" transform="translate(1652 760)">Save</text><text id="svgResponse" font-family="Calibri,Calibri_MSFontService,sans-serif" font-size="147" font-weight="700" transform="translate(1523 1277)">Response</text></g></svg>
