<svg xmlns="http://www.w3.org/2000/svg" xmlns:xlink="http://www.w3.org/1999/xlink" xml:space="preserve" overflow="hidden" viewBox="0 0 3767 1006"><defs><path id="reuse-0" d="M588 547h847v846H588z"/><path id="reuse-1" d="M2498 661h280v280h-280z"/></defs><defs><clipPath id="a"><path d="M589 548h3767v1006H589z"/></clipPath><clipPath id="b"><use xlink:href="#reuse-0"/></clipPath><clipPath id="c"><use xlink:href="#reuse-0"/></clipPath><clipPath id="d"><use xlink:href="#reuse-0"/></clipPath><clipPath id="e"><use xlink:href="#reuse-1"/></clipPath><clipPath id="f"><use xlink:href="#reuse-1"/></clipPath><clipPath id="g"><use xlink:href="#reuse-1"/></clipPath></defs><g clip-path="url(#a)" transform="translate(-589 -548)"><g clip-path="url(#b)"><g clip-path="url(#c)"><g clip-path="url(#d)"><path d="M671 649c-27 0-48 23-48 49v577c0 9 7 17 17 17h743c10 0 17-8 17-17V698c0-26-21-49-48-49H671Zm0 34h681c8 0 14 7 14 15v154H657V698c0-8 6-15 14-15Zm239 34v101h406V717H910Zm-186 17a34 34 0 1 0 0 68 34 34 0 0 0 0-68Zm102 0a34 34 0 1 0 0 68 34 34 0 0 0 0-68Zm118 17h338v34H944v-34ZM657 886h709v372H657V886Z"/></g></g></g><text font-family="Calibri,Calibri_MSFontService,sans-serif" font-size="147" font-weight="700" transform="translate(784 1083)">Results</text><path fill="none" stroke="#000" stroke-miterlimit="8" stroke-width="27.5" d="M2200 751c0-57 47-104 104-104h604c57 0 104 47 104 104v418c0 57-47 104-104 104h-604c-57 0-104-47-104-104Z"/><g clip-path="url(#e)"><g clip-path="url(#f)"><g clip-path="url(#g)"><path d="M2650 865h-25l-3-3v-14l-7-3-10 9-2 1-2-1-17-17c-2-1-2-3 0-4l9-10-3-7h-14l-3-3v-25l3-3h14l3-7-9-10c-2-1-2-3 0-4l17-17c1-2 3-2 4 0l10 9 7-3v-14l3-3h25l3 3v14l7 3 10-9c1-2 3-2 4 0l17 17a3 3 0 0 1 0 4l-9 10 3 7h14l3 3v25l-3 3h-14l-3 7 9 10a3 3 0 0 1 0 4l-17 17-2 1-2-1-10-9-7 3v14l-3 3Zm-21-7h17v-12c0-2 1-3 2-3l12-5 3 1 9 9 13-13-9-9-1-3 5-12 3-2h12v-17h-12c-2 0-3-1-3-2l-5-12 1-3 9-9-13-13-9 9-3 1-12-5-2-3v-12h-17v12c0 2-1 3-2 3l-12 5-3-1-9-9-13 13 9 9 1 3-5 12c0 1-1 2-3 2h-12v17h12c2 0 3 1 3 2l5 12-1 3-9 9 13 13 9-9 3-1 12 5 2 3v12Zm9-28a29 29 0 1 1 0-59 29 29 0 0 1 0 59Zm0-53a23 23 0 1 0 0 47 23 23 0 0 0 0-47Zm0 157c-40 0-76-16-102-46v35h-6v-47h46v6h-37a128 128 0 0 0 226-82l6 1c0 73-60 133-133 133Zm-128-133h-6a134 134 0 0 1 235-88v-35h6v47h-46v-6h37a128 128 0 0 0-226 82Z"/></g></g></g><text font-family="Calibri,Calibri_MSFontService,sans-serif" font-size="110" font-weight="700" transform="translate(2273 1073)">Execute MQTT</text><text font-family="Calibri,Calibri_MSFontService,sans-serif" font-size="110" font-weight="700" transform="translate(2273 1205)">Example Code</text><text font-family="Calibri,Calibri_MSFontService,sans-serif" font-size="147" font-weight="700" transform="translate(761 1426)">Browser</text><text font-family="Calibri,Calibri_MSFontService,sans-serif" font-size="147" font-weight="700" transform="translate(2408 1426)">Server</text><path d="M1435 790h669v21h-669Zm658-20 62 31-62 30ZM2155 1130h-669v21h669Zm-659-20-61 31 61 30Z"/><text font-family="Calibri,Calibri_MSFontService,sans-serif" font-size="147" font-weight="700" transform="translate(1652 760)">Save</text><text font-family="Calibri,Calibri_MSFontService,sans-serif" font-size="147" font-weight="700" transform="translate(1526 1277)">Response</text><text font-family="Calibri,Calibri_MSFontService,sans-serif" font-size="73" font-weight="700" transform="translate(1552 1385)">(Via </text><text font-family="Calibri,Calibri_MSFontService,sans-serif" font-size="73" font-weight="700" transform="translate(1689 1385)">WebSockets</text><text font-family="Calibri,Calibri_MSFontService,sans-serif" font-size="73" font-weight="700" transform="translate(2058 1385)">)</text><path fill="#FFF" fill-rule="evenodd" stroke="#000" stroke-miterlimit="8" stroke-width="27.5" d="M3868 934c0-30 24-54 54-54h366c30 0 54 24 54 54v215c0 30-24 54-54 54h-366c-30 0-54-24-54-54Z"/><path fill="#FFF" fill-rule="evenodd" stroke="#000" stroke-miterlimit="8" stroke-width="27.5" d="M3813 879c0-30 24-54 54-54h366c30 0 54 24 54 54v215c0 30-24 54-54 54h-366c-30 0-54-24-54-54Z"/><path fill="#FFF" fill-rule="evenodd" stroke="#000" stroke-miterlimit="8" stroke-width="27.5" d="M3758 824c0-30 24-54 54-54h366c30 0 54 24 54 54v215c0 30-24 54-54 54h-366c-30 0-54-24-54-54Z"/><path fill="#FFF" fill-rule="evenodd" stroke="#000" stroke-miterlimit="8" stroke-width="27.5" d="M3703 769c0-30 24-54 54-54h366c30 0 54 24 54 54v215c0 30-24 54-54 54h-366c-30 0-54-24-54-54Z"/><text font-family="Arial,Arial_MSFontService,sans-serif" font-size="128" font-weight="700" transform="translate(3758 846)">MQTT</text><text font-family="Arial,Arial_MSFontService,sans-serif" font-size="128" font-weight="700" transform="translate(3732 1000)">Broker</text><path d="M3094 867h503v21h-503Zm10 41-61-30 61-31Zm482-61 62 31-62 30Z"/><text font-family="Calibri,Calibri_MSFontService,sans-serif" font-size="147" font-weight="700" transform="translate(3119 1008)">Connect,</text><text font-family="Calibri,Calibri_MSFontService,sans-serif" font-size="147" font-weight="700" transform="translate(3119 1184)">Pub, Sub</text></g></svg>